<svg version="1" xmlns="http://www.w3.org/2000/svg" width="240" height="240" viewBox="0 0 180.000000 180.000000"><path d="M75.9 31.5C48.6 38.4 30 62.1 30 90c0 25 14.9 46.7 38.5 56.2 7.5 3 8.8 3.2 20.5 3.3 10.6 0 13.6-.4 19.8-2.4 23.8-7.8 39.7-28.9 40.9-54.1 1.3-26.5-13.5-49.4-38.2-59.2-6.9-2.7-9.5-3.2-19-3.4-7.2-.2-12.9.1-16.6 1.1zm15 26.6l21.1 7.1v13.6L98 90.9c-7.7 6.7-14 12.5-14 12.9 0 .5 3.9 2.1 8.8 3.6 4.8 1.6 11.1 3.7 14 4.8l5.2 1.9v6.5c0 3.5-.3 6.4-.7 6.4-.5 0-10.4-3.2-22-7.2L68 112.5V99.4l14.6-12.7C96 75 97 73.9 94.8 73.2c-1.3-.5-7.8-2.8-14.5-5.2L68 63.8v-6.4c0-3.5.4-6.4.9-6.4s10.4 3.2 22 7.1z"/></svg>